<svg id="_x31__x2C_5" enable-background="new 0 0 24 24" height="512" viewBox="0 0 24 24" width="512" xmlns="http://www.w3.org/2000/svg"><g><path d="m19.25 22.237c0 .626-.544 1.138-1.208 1.138h-12.084c-.665 0-1.208-.512-1.208-1.138v-20.474c0-.626.544-1.138 1.208-1.138h.604c.665 0 1.656.468 1.656 1.094s.097 1.181.761 1.181h6.042c.664 0 .479-.274.479-.9s1.273-1.375 1.937-1.375h.604c.665 0 1.208.512 1.208 1.138v20.474z" fill="#f5f5f5"/></g><g><path d="m16.5 1c-.55 0-1 .45-1 1s-.45 1-1 1h-5c-.55 0-1-.45-1-1s-.45-1-1-1z" fill="#607d8b"/></g><g><path d="m7.75 12c-.414 0-.75-.336-.75-.75v-1.5c0-.965.785-1.75 1.75-1.75h1.5c.414 0 .75.336.75.75s-.336.75-.75.75h-1.5c-.138 0-.25.112-.25.25v1.5c0 .414-.336.75-.75.75z"/></g><g><path d="m16.25 12c-.414 0-.75-.336-.75-.75v-1.5c0-.138-.112-.25-.25-.25h-1.5c-.414 0-.75-.336-.75-.75s.336-.75.75-.75h1.5c.965 0 1.75.785 1.75 1.75v1.5c0 .414-.336.75-.75.75z"/></g><g><path d="m10.25 18h-1.5c-.965 0-1.75-.785-1.75-1.75v-1.5c0-.414.336-.75.75-.75s.75.336.75.75v1.5c0 .138.112.25.25.25h1.5c.414 0 .75.336.75.75s-.336.75-.75.75z"/></g><g><path d="m15.25 18h-1.5c-.414 0-.75-.336-.75-.75s.336-.75.75-.75h1.5c.138 0 .25-.112.25-.25v-1.5c0-.414.336-.75.75-.75s.75.336.75.75v1.5c0 .965-.785 1.75-1.75 1.75z"/></g><g><path d="m14.25 4h-4.5c-.965 0-1.75-.785-1.75-1.75 0-.413-.337-.75-.75-.75h-.5c-.414 0-.75-.336-.75-.75s.336-.75.75-.75h.5c1.24 0 2.25 1.01 2.25 2.25 0 .138.112.25.25.25h4.5c.138 0 .25-.112.25-.25 0-1.24 1.01-2.25 2.25-2.25h.5c.414 0 .75.336.75.75s-.336.75-.75.75h-.5c-.413 0-.75.337-.75.75 0 .965-.785 1.75-1.75 1.75z"/></g><g><path d="m17.25 24h-10.5c-1.517 0-2.75-1.233-2.75-2.75v-18.5c0-1.517 1.233-2.75 2.75-2.75h10.5c1.517 0 2.75 1.233 2.75 2.75v18.5c0 1.517-1.233 2.75-2.75 2.75zm-10.5-22.5c-.689 0-1.25.561-1.25 1.25v18.5c0 .689.561 1.25 1.25 1.25h10.5c.689 0 1.25-.561 1.25-1.25v-18.5c0-.689-.561-1.25-1.25-1.25z"/></g></svg>